<?xml version="1.0" standalone="no"?><!DOCTYPE svg PUBLIC "-//W3C//DTD SVG 1.1//EN" "http://www.w3.org/Graphics/SVG/1.1/DTD/svg11.dtd"><svg class="icon" height="512" viewBox="0 0 1160 1024" version="1.1" xmlns="http://www.w3.org/2000/svg"><path d="M319.7952 739.7376c127.829333 0 231.594667-101.751467 231.594667-227.293867 0-125.508267-103.765333-227.259733-231.594667-227.259733s-231.594667 101.751467-231.594667 227.259733c0 125.5424 103.6288 227.328 231.594667 227.328zM56.695467 341.947733C22.1184 342.254933 1.297067 309.623467 1.297067 294.126933V31.573333c0-8.0896 3.242667-15.837867 9.079466-21.572266A31.3344 31.3344 0 0 1 32.426667 1.092267H1128.106667c8.260267 0 16.1792 3.1744 22.016 8.874666 5.8368 5.768533 9.1136 13.5168 9.079466 21.6064v848.1792a30.139733 30.139733 0 0 1-9.079466 21.572267 31.3344 31.3344 0 0 1-22.016 8.9088H751.616c-15.940267 0-56.388267-18.3296-55.534933-47.957333 1.024-35.464533 39.458133-47.991467 55.534933-47.991467 0 0 309.930667-0.477867 309.930667-1.262933 0 0 1.024-690.961067-1.297067-716.117334-35.6352-0.9216-888.9344-0.6144-947.985067 1.297067-3.413333 26.077867 0 195.925333 0 195.925333 0 15.598933-20.957867 47.547733-55.569066 47.8208z m686.523733 199.4752c-1.024-1.024-1.024-2.6624 0-3.549866l190.805333-187.153067a30.685867 30.685867 0 0 1 42.7008 0 29.2864 29.2864 0 0 1 0 41.915733l-190.805333 187.153067a2.525867 2.525867 0 0 1-3.618133 0l-39.082667-38.365867zM573.781333 858.794667c-25.258667 40.004267-22.391467 151.7568-22.391466 151.7568s-3.447467 13.175467-29.013334 13.0048c-65.4336 0.4096-492.066133 0-492.066133 0s-23.6544-0.068267-29.013333-6.3488c0-122.606933 90.146133-262.826667 90.146133-262.826667s11.264-19.217067 29.013333-21.504a33.8944 33.8944 0 0 1 23.210667 4.846933l1.672533 1.262934a292.727467 292.727467 0 0 0 174.318934 57.309866c63.488 0 122.1632-20.104533 169.949866-53.998933l185.719467-136.0896c5.461333-5.461333 12.970667-8.4992 20.718933-8.533333a28.672 28.672 0 0 1 28.910934 28.330666 27.306667 27.306667 0 0 1-4.676267 15.394134c0.273067 0.273067-121.2416 177.3568-146.500267 217.3952z" /></svg>