<?xml version="1.0" standalone="no"?><!DOCTYPE svg PUBLIC "-//W3C//DTD SVG 1.1//EN" "http://www.w3.org/Graphics/SVG/1.1/DTD/svg11.dtd"><svg class="icon" height="512" viewBox="0 0 1024 1024" version="1.1" xmlns="http://www.w3.org/2000/svg"><path d="M749.548254 631.619378 749.575884 631.453602 749.820454 631.030977 749.923808 631.346155ZM724.868155 619.191324 724.892715 619.042945 725.111702 618.664322 725.2038 618.946754ZM387.742998 353.803002l139.248438 0 0 39.46585-139.248438 0 0-39.46585ZM387.742998 511.834224l353.491916 0 0 39.46585-353.491916 0 0-39.46585ZM387.742998 669.865447l107.299795 0 0 39.46585-107.299795 0 0-39.46585ZM727.134779 588.290547 606.436836 708.98849 558.910403 661.46308 534.99062 685.382862 606.685499 757.078765 630.605282 733.157959 630.356618 732.909295 751.055584 612.210329ZM280.598746 345.345376l56.380078 0 0 56.380078-56.380078 0 0-56.380078ZM280.598746 503.376599l56.380078 0 0 56.380078-56.380078 0 0-56.380078ZM280.598746 661.407821l56.380078 0 0 56.380078-56.380078 0 0-56.380078ZM602.289376 368.704386c0.11461 0.107447 0.232291 0.206708 0.349971 0.305969 0.104377 0.088004 0.206708 0.183172 0.310062 0.267083 0.048095 0.041956 0.098237 0.079818 0.148379 0.11768 3.118014 2.520403 7.085372 4.03592 11.411911 4.03592l225.38933 0c10.035564 0 18.174941-8.150634 18.174941-18.174941 0-5.269004-2.252297-10.017144-5.844102-13.33982L627.833145 117.52774c-3.317559-3.584642-8.06263-5.825682-13.323447-5.825682-9.445116 0-17.217127 7.218402-18.08796 16.446577l-0.004093 0.014326c-0.053212 0.565888-0.083911 1.134847-0.083911 1.709945l0 225.38319c0 5.287423 2.26253 10.04375 5.867638 13.364379C602.231047 368.647081 602.258677 368.67778 602.289376 368.704386zM642.376373 196.479907l131.85505 131.846864L642.376373 328.32677 642.376373 196.479907zM835.521325 441.318194c-12.287861 0-22.236444 9.839089-22.502503 22.062482l-0.049119 0 0 390.181537c0 11.067057-2.433422 14.126742-13.500479 14.126742L224.530776 867.688955c-11.067057 0-13.500479-3.059686-13.500479-14.126742L211.030297 170.985256c0-11.067057 2.433422-14.675234 13.500479-14.675234L513.25355 156.310022c0-0.023536 0-0.046049 0-0.069585 0.23536 0.007163 0.454348 0.069585 0.691755 0.069585 12.31856 0 22.303982-9.985422 22.303982-22.303982 0-12.317537-9.985422-22.303982-22.303982-22.303982-0.237407 0-0.456395 0.062422-0.691755 0.069585 0-0.023536 0-0.046049 0-0.069585L188.478675 111.702058c-12.455683 0-22.551622 10.096962-22.551622 22.551622l0 755.491617c0 12.455683 10.095939 22.551622 22.551622 22.551622l647.043672 0c12.455683 0 22.551622-10.096962 22.551622-22.551622L858.07397 463.810465l-0.00614 0C858.033038 451.383434 847.956541 441.318194 835.521325 441.318194z" /></svg>